<svg width="50" height="50" viewBox="0 0 50 50" fill="none" xmlns="http://www.w3.org/2000/svg">
<g clip-path="url(#clip0_601_4196)">
<path d="M7.32422 27.9297C8.52432 27.9297 9.64127 28.2475 10.6419 28.7613L12.6217 26.4084C11.7439 25.8896 10.7944 25.4906 9.7908 25.2659C8.97255 25.0816 8.16154 25.0141 7.31621 25.0015C6.22444 25.0099 5.15022 24.5792 4.34647 23.7827C3.508 22.953 3.02734 21.7987 3.02734 20.4338C3.02734 12.9314 9.34753 7.42188 16.0206 7.42188H17.6758C18.4853 7.42188 19.1406 8.07724 19.1406 8.88672C19.1406 9.6962 18.4853 10.3516 17.6758 10.3516H16.0206C15.5842 10.3516 15.168 10.4267 14.7461 10.4809V13.3114C15.5968 13.3884 16.3979 13.6517 17.1558 14.0045C17.1654 13.9935 17.1776 13.9862 17.1867 13.9751C18.3891 14.5374 19.4256 15.4167 20.1763 16.5428L23.5107 21.5439C23.7396 21.8857 24.1001 22.1161 24.5079 22.179C27.4734 22.6349 30.0442 24.5255 31.3942 27.2861C30.143 29.1561 29.3945 31.3839 29.3945 33.7891H32.4219C32.4219 28.9425 36.3644 25 41.2109 25C46.0575 25 50 28.9425 50 33.7891C50 38.6356 46.0575 42.5781 41.2109 42.5781C37.3966 42.5781 34.1751 40.1215 32.9617 36.7188H19.1406C18.3311 36.7188 17.6758 36.0634 17.6758 35.2539C17.6758 34.4398 17.5785 33.6086 17.3882 32.785C16.9891 31.0745 16.0995 29.5177 14.9055 28.2459L12.9284 30.5954C13.9862 31.8653 14.6484 33.4759 14.6484 35.2539C14.6484 39.2921 11.3625 42.5781 7.32422 42.5781C3.28598 42.5781 0 39.2921 0 35.2539C0 31.2157 3.28598 27.9297 7.32422 27.9297ZM41.2109 39.6484C44.4424 39.6484 47.0703 37.0205 47.0703 33.7891C47.0703 30.5576 44.4424 27.9297 41.2109 27.9297C37.9795 27.9297 35.3516 30.5576 35.3516 33.7891H39.7461C40.5544 33.7891 41.2109 33.1326 41.2109 32.3242C41.2109 31.5147 41.8663 30.8594 42.6758 30.8594C43.4853 30.8594 44.1406 31.5147 44.1406 32.3242C44.1406 34.7473 42.1692 36.7188 39.7461 36.7188H36.1664C37.1826 38.4617 39.0514 39.6484 41.2109 39.6484ZM7.32422 39.6484C9.74731 39.6484 11.7188 37.677 11.7188 35.2539C11.7188 34.4051 11.4658 33.6189 11.0474 32.946L8.46863 36.1694C7.95937 36.8046 7.03697 36.9003 6.40869 36.3983C5.77774 35.8917 5.67474 34.9709 6.17981 34.3384L8.75549 31.1188C8.3046 30.962 7.82814 30.8594 7.32422 30.8594C4.90112 30.8594 2.92969 32.8308 2.92969 35.2539C2.92969 37.677 4.90112 39.6484 7.32422 39.6484Z" fill="white" fill-opacity="0.76"/>
<path d="M25.1236 18.6825L22.6139 14.9178C21.8117 13.7138 20.7596 12.7357 19.5645 11.9762C21.172 10.9612 23.0251 10.3516 25 10.3516C28.4611 10.3516 31.6582 12.1159 33.54 14.9452L31.197 16.3513C29.3148 17.4805 27.2537 18.2365 25.1236 18.6825Z" fill="white" fill-opacity="0.76"/>
<path d="M32.7045 18.8629L42.1047 13.2812H48.5352C49.3446 13.2812 50 13.9366 50 14.7461C50 18.7843 46.714 22.0703 42.6758 22.0703C39.7457 22.0703 36.7062 22.134 33.4496 24.9649C33.437 24.9416 33.437 24.9153 33.4229 24.8928C32.2865 23.0656 30.682 21.6488 28.8425 20.6532C30.1743 20.166 31.4781 19.5984 32.7045 18.8629Z" fill="white" fill-opacity="0.76"/>
</g>
<defs>
<clipPath id="clip0_601_4196">
<rect width="50" height="50" fill="white" transform="matrix(-1 0 0 1 50 0)"/>
</clipPath>
</defs>
</svg>
