<svg width="50" height="50" viewBox="0 0 50 50" fill="none" xmlns="http://www.w3.org/2000/svg">
<g clip-path="url(#clip0_601_4191)">
<path d="M46.9009 19.0841C46.8672 19.0453 46.8386 19.0076 46.7989 18.9698L45.0467 17.279C46.4999 16.9493 48.0642 15.7319 48.0642 14.4829C48.0642 13.0278 46.0447 12.5114 44.3212 12.5114C42.5191 12.5114 42.3099 13.7462 42.2885 14.6186L37.7679 10.2603C36.8495 9.35108 35.1076 8.63574 33.8055 8.63574H25.001H24.999H16.1925C14.8914 8.63574 13.1505 9.35108 12.2311 10.2603L7.71154 14.6186C7.68807 13.7462 7.47888 12.5114 5.6788 12.5114C3.95322 12.5114 1.93477 13.0278 1.93477 14.4829C1.93477 15.7319 3.50014 16.9493 4.95326 17.279L3.20115 18.9698C3.16135 19.0076 3.1338 19.0453 3.09911 19.0841C1.22454 20.6862 0 23.6578 0 25.814V32.2214C0 33.7766 0.61329 35.1878 1.60415 36.2399V38.7247C1.60415 40.1778 2.82052 41.3626 4.3165 41.3626H7.59623C9.09221 41.3626 10.3076 40.1799 10.3076 38.7247V38.089H24.999H25.001H39.6914V38.7247C39.6914 40.1799 40.9058 41.3626 42.4038 41.3626H45.6825C47.1795 41.3626 48.3938 40.1778 48.3938 38.7247V36.2399C49.3857 35.1878 49.998 33.7766 49.998 32.2214V25.814C50 23.6578 48.7755 20.6862 46.9009 19.0841ZM13.8914 12.1971C14.5271 11.6675 15.6384 11.2654 16.1925 11.2654H24.999H25.001H33.8075C34.3616 11.2654 35.4729 11.6675 36.1086 12.1971L42.0364 17.9422H25.001H24.999H7.96461L13.8914 12.1971ZM2.03376 24.8446C2.03376 23.267 3.2685 21.9863 4.79305 21.9863C6.31658 21.9863 11.2954 24.9089 11.2954 26.4865C11.2954 28.0641 6.31658 27.6988 4.79305 27.6988C3.2685 27.6988 2.03376 26.4232 2.03376 24.8446ZM10.3086 35.2797H9.78305H9.25752L6.14005 35.2848C5.27471 35.0154 4.66448 34.7011 4.23283 34.3633C4.01445 34.1929 3.8471 34.0153 3.71648 33.8388C3.58484 33.6602 3.48892 33.4847 3.42667 33.3092C3.0389 32.2132 3.83995 31.2061 3.83995 31.2061H9.16058L12.7077 35.2776L10.3086 35.2797ZM32.6503 35.2817H25.001H24.999H17.3497C15.7547 35.2817 14.4598 33.9868 14.4598 32.3928H24.999H25.001H35.5402C35.5402 33.9888 34.2453 35.2817 32.6503 35.2817ZM33.3218 30.4213H25.001H24.999H16.6782C14.9435 30.4213 13.5352 28.2825 13.5352 25.6446H24.999H25.001H36.4648C36.4648 28.2835 35.0565 30.4213 33.3218 30.4213ZM46.5744 33.3112C46.5111 33.4868 46.4152 33.6623 46.2835 33.8398C46.1539 34.0164 45.9866 34.1939 45.7672 34.3643C45.3365 34.7021 44.7253 35.0184 43.86 35.2858L40.7425 35.2807H40.2169H39.6914H37.2903L40.8394 31.2091H46.159C46.159 31.2081 46.9611 32.2132 46.5744 33.3112ZM45.2069 27.6988C43.6844 27.6988 38.7057 28.062 38.7057 26.4865C38.7057 24.9109 43.6844 21.9863 45.2069 21.9863C46.7315 21.9863 47.9662 23.267 47.9662 24.8446C47.9662 26.4212 46.7315 27.6988 45.2069 27.6988Z" fill="#130F26"/>
</g>
<defs>
<clipPath id="clip0_601_4191">
<rect width="49.999" height="50" fill="white"/>
</clipPath>
</defs>
</svg>
