<svg width="49" height="21" viewBox="0 0 49 21" fill="none" xmlns="http://www.w3.org/2000/svg">
<g clip-path="url(#clip0_601_5286)">
<path d="M18.6041 0.268947L12.1888 14.9981H8.00346L4.84641 3.24284C4.655 2.52055 4.48867 2.25474 3.90622 1.94932C2.95416 1.45158 1.38195 0.986079 0 0.6965L0.0932148 0.268947H6.83148C7.68898 0.268947 8.46111 0.818447 8.6575 1.76989L10.3256 10.2939L14.4439 0.268947H18.6041ZM24.2621 0.268947L20.9885 14.9981H17.0286L20.3027 0.268947H24.2623H24.2621ZM35.003 10.1891C35.0195 6.30239 29.4189 6.08668 29.4555 4.35013C29.4689 3.82218 29.9914 3.26016 31.1353 3.11647C31.7019 3.04592 33.2672 2.98974 35.0402 3.77595L35.7338 0.650632C34.7812 0.319053 33.5552 0 32.0303 0C28.116 0 25.3627 2.00089 25.3407 4.86832C25.315 6.98932 27.3074 8.17139 28.8057 8.87784C30.349 9.59921 30.8666 10.0629 30.8595 10.7076C30.8484 11.6959 29.6268 12.1334 28.4912 12.1496C26.4998 12.18 25.3454 11.6316 24.4246 11.2188L23.7059 14.4476C24.6323 14.8562 26.3396 15.2112 28.108 15.2292C32.2692 15.2292 34.9908 13.2514 35.003 10.1892V10.1891ZM45.339 14.9981H49L45.8016 0.268947H42.4239C41.6621 0.268947 41.0218 0.694474 40.7378 1.34861L34.7965 14.9981H38.9544L39.7792 12.7978H44.8591L45.3392 14.9981H45.339ZM40.9194 9.77955L43.0042 4.24826L44.2018 9.77955H40.9192H40.9194ZM29.3298 19.0523H27.7208V20.4934H29.5204V20.9267H27.1787V16.9289H29.4281V17.3622H27.7208V18.6253H29.3296V19.0527L29.3298 19.0523ZM30.3517 16.7154H30.8937V20.9265H30.3517V16.7154ZM32.2615 19.586C32.2738 20.2921 32.7362 20.5826 33.2844 20.5826C33.673 20.5826 33.9132 20.5174 34.1107 20.4345L34.2091 20.8082C34.0181 20.8911 33.6854 20.9919 33.2105 20.9919C32.2925 20.9919 31.7442 20.4048 31.7442 19.5387C31.7442 18.6729 32.2738 17.9964 33.1429 17.9964C34.1229 17.9964 34.3756 18.8153 34.3756 19.343C34.3756 19.4497 34.3693 19.5267 34.3568 19.5862H32.2615V19.586ZM33.8515 19.2124C33.8578 18.8864 33.7099 18.3702 33.0997 18.3702C32.545 18.3702 32.3107 18.8506 32.2675 19.2124H33.8515ZM37.3263 20.8257C37.1847 20.8911 36.8702 20.9921 36.4698 20.9921C35.57 20.9921 34.9845 20.4048 34.9845 19.5269C34.9845 18.643 35.6129 17.9966 36.5867 17.9966C36.9071 17.9966 37.1906 18.0734 37.3386 18.1508L37.2157 18.5482C37.0857 18.4829 36.8825 18.4115 36.5867 18.4115C35.9025 18.4115 35.533 18.9039 35.533 19.4974C35.533 20.1615 35.9767 20.5708 36.5684 20.5708C36.8765 20.5708 37.0798 20.4997 37.2339 20.4345L37.3263 20.8257ZM38.8476 17.3677V18.0558H39.624V18.4529H38.8476V20.0012C38.8476 20.3575 38.9525 20.5588 39.2544 20.5588C39.4021 20.5588 39.4886 20.5472 39.5688 20.5231L39.5935 20.921C39.4886 20.9563 39.3223 20.9919 39.1127 20.9919C38.8599 20.9919 38.6564 20.9088 38.5272 20.7727C38.3792 20.6122 38.3176 20.3575 38.3176 20.0193V18.4529H37.8552V18.0558H38.3176V17.5221L38.8478 17.3679L38.8476 17.3677ZM40.3814 18.9516C40.3814 18.6134 40.3749 18.3229 40.3567 18.0558H40.8314L40.8562 18.625H40.8742C41.0101 18.2398 41.3426 17.9964 41.7061 17.9964C41.7618 17.9964 41.805 18.0025 41.8544 18.0082V18.5008C41.7989 18.4887 41.7436 18.4887 41.6691 18.4887C41.2875 18.4887 41.0159 18.7615 40.9422 19.1533C40.9295 19.2338 40.9233 19.3151 40.9236 19.3964V20.9269H40.3814V18.9516ZM45.1878 19.4674C45.1878 20.5292 44.4172 20.9919 43.7024 20.9919C42.901 20.9919 42.2726 20.4223 42.2726 19.5151C42.2726 18.5599 42.932 17.9966 43.7518 17.9966C44.6084 17.9966 45.1878 18.5953 45.1878 19.4676V19.4674ZM42.8271 19.4972C42.8271 20.1259 43.1969 20.6006 43.727 20.6006C44.2449 20.6006 44.6329 20.1316 44.6329 19.4852C44.6329 18.9989 44.3802 18.3877 43.7392 18.3877C43.1047 18.3877 42.8271 18.9575 42.8271 19.4972ZM46.0188 18.8328C46.0188 18.5305 46.0123 18.293 45.994 18.0559H46.4748L46.5056 18.5305H46.5178C46.6658 18.2634 47.0109 17.9966 47.504 17.9966C47.9166 17.9966 48.5579 18.2339 48.5579 19.2181V20.9267H48.0156V19.2717C48.0156 18.8094 47.8368 18.4234 47.3254 18.4234C46.974 18.4234 46.6964 18.6668 46.5982 18.9573C46.5733 19.0227 46.5611 19.1115 46.5611 19.2006V20.9267H46.0188V18.8328Z" fill="#BDBDBD"/>
</g>
<defs>
<clipPath id="clip0_601_5286">
<rect width="49" height="21" fill="white"/>
</clipPath>
</defs>
</svg>
