<svg width="40" height="32" viewBox="0 0 40 32" fill="none" xmlns="http://www.w3.org/2000/svg">
<g clip-path="url(#clip0_601_5294)">
<path d="M7.27205 31.8406V29.7226C7.27205 28.9106 6.79174 28.3812 5.96846 28.3812C5.55689 28.3812 5.11096 28.5224 4.80221 28.9813C4.56221 28.593 4.21924 28.3812 3.70471 28.3812C3.36158 28.3812 3.01877 28.487 2.74424 28.8753V28.4518H2.02393V31.8406H2.74424V29.9696C2.74424 29.3696 3.05299 29.0871 3.5333 29.0871C4.0133 29.0871 4.25361 29.4049 4.25361 29.9696V31.8406H4.97393V29.9696C4.97393 29.3696 5.31674 29.0871 5.76268 29.0871C6.24299 29.0871 6.48299 29.4049 6.48299 29.9696V31.8406H7.27205ZM17.9394 28.4518H16.7733V27.4281H16.053V28.4518H15.4013V29.1223H16.0528V30.6757C16.0528 31.4524 16.3616 31.9112 17.1849 31.9112C17.4936 31.9112 17.8364 31.8053 18.0767 31.6642L17.8708 31.0287C17.665 31.1698 17.425 31.2052 17.2535 31.2052C16.9105 31.2052 16.7733 30.9934 16.7733 30.6403V29.1223H17.9394V28.4518ZM24.045 28.381C23.6335 28.381 23.3591 28.593 23.1875 28.8753V28.4518H22.4672V31.8406H23.1875V29.9344C23.1875 29.3696 23.4275 29.0519 23.8735 29.0519C24.0106 29.0519 24.1822 29.0873 24.3194 29.1225L24.5252 28.4166C24.388 28.3812 24.1822 28.3812 24.045 28.3812V28.381ZM14.8181 28.7341C14.475 28.487 13.9949 28.3812 13.4803 28.3812C12.6572 28.3812 12.1085 28.8047 12.1085 29.4755C12.1085 30.0404 12.52 30.3579 13.2403 30.4639L13.5833 30.4993C13.9606 30.5697 14.1664 30.6757 14.1664 30.8523C14.1664 31.0993 13.8921 31.2758 13.4117 31.2758C12.9316 31.2758 12.5542 31.0993 12.3141 30.9229L11.9711 31.4876C12.3485 31.77 12.863 31.9112 13.3774 31.9112C14.3378 31.9112 14.8867 31.4524 14.8867 30.8169C14.8867 30.2168 14.4408 29.899 13.7547 29.7932L13.4117 29.7578C13.103 29.7225 12.863 29.652 12.863 29.4402C12.863 29.1931 13.103 29.0519 13.4803 29.0519C13.8921 29.0519 14.3036 29.2283 14.5094 29.3343L14.8181 28.7341ZM33.958 28.3812C33.5463 28.3812 33.2719 28.593 33.1003 28.8753V28.4518H32.38V31.8406H33.1003V29.9344C33.1003 29.3696 33.3405 29.0519 33.7863 29.0519C33.9236 29.0519 34.0952 29.0873 34.2324 29.1225L34.4381 28.4166C34.301 28.3812 34.0952 28.3812 33.958 28.3812ZM24.7653 30.1462C24.7653 31.1698 25.4513 31.9112 26.5147 31.9112C26.9949 31.9112 27.3378 31.8053 27.6808 31.523L27.3378 30.9229C27.0635 31.1346 26.7891 31.2404 26.4803 31.2404C25.8972 31.2404 25.4856 30.8169 25.4856 30.1462C25.4856 29.5108 25.8972 29.0871 26.4803 29.0519C26.7891 29.0519 27.0635 29.1577 27.3378 29.3696L27.6808 28.7695C27.3378 28.487 26.9949 28.3812 26.5147 28.3812C25.4513 28.3812 24.7653 29.1225 24.7653 30.1462ZM31.4197 30.1462V28.4518H30.6994V28.8753C30.4592 28.5577 30.1163 28.3812 29.6703 28.3812C28.7442 28.3812 28.0239 29.1225 28.0239 30.1462C28.0239 31.1698 28.7442 31.9112 29.6703 31.9112C30.1505 31.9112 30.4936 31.7348 30.6994 31.417V31.8406H31.4197V30.1462ZM28.7785 30.1462C28.7785 29.546 29.1558 29.0519 29.7731 29.0519C30.3563 29.0519 30.768 29.5108 30.768 30.1462C30.768 30.7463 30.3563 31.2404 29.7731 31.2404C29.1558 31.2051 28.7785 30.7463 28.7785 30.1462ZM20.1691 28.3812C19.2086 28.3812 18.5225 29.0871 18.5225 30.1462C18.5225 31.2052 19.2085 31.9112 20.2033 31.9112C20.6835 31.9112 21.1638 31.77 21.5411 31.4524L21.198 30.9229C20.9236 31.1346 20.5806 31.2758 20.2377 31.2758C19.7917 31.2758 19.3458 31.064 19.2428 30.4638H21.6783V30.1815C21.7127 29.0871 21.0952 28.3812 20.1689 28.3812H20.1691ZM20.1691 29.0165C20.6149 29.0165 20.9238 29.2991 20.9922 29.8286H19.2772C19.3458 29.3696 19.6546 29.0165 20.1691 29.0165ZM38.0397 30.1462V27.1104H37.3194V28.8753C37.0792 28.5577 36.7363 28.3812 36.2903 28.3812C35.3642 28.3812 34.6439 29.1225 34.6439 30.1462C34.6439 31.1698 35.3642 31.9112 36.2903 31.9112C36.7706 31.9112 37.1136 31.7348 37.3194 31.417V31.8406H38.0397V30.1462ZM35.3986 30.1462C35.3986 29.546 35.7758 29.0519 36.3933 29.0519C36.9764 29.0519 37.388 29.5108 37.388 30.1462C37.388 30.7463 36.9764 31.2404 36.3933 31.2404C35.7758 31.2051 35.3986 30.7463 35.3986 30.1462ZM11.3194 30.1462V28.4518H10.5991V28.8753C10.3589 28.5577 10.016 28.3812 9.57002 28.3812C8.64393 28.3812 7.92361 29.1225 7.92361 30.1462C7.92361 31.1698 8.64393 31.9112 9.57002 31.9112C10.0503 31.9112 10.3933 31.7348 10.5991 31.417V31.8406H11.3194V30.1462ZM8.64393 30.1462C8.64393 29.546 9.02127 29.0519 9.63861 29.0519C10.2217 29.0519 10.6335 29.5108 10.6335 30.1462C10.6335 30.7463 10.2217 31.2404 9.63861 31.2404C9.02127 31.2051 8.64393 30.7463 8.64393 30.1462Z" fill="white"/>
<path d="M14.5776 2.71777H25.3823V22.6978H14.5776V2.71777Z" fill="#FF6E1A"/>
<path d="M15.2639 12.7082C15.2639 8.64868 17.1161 5.04796 19.963 2.71807C17.8708 1.02368 15.2297 0 12.3484 0C5.52234 0 0 5.6833 0 12.7082C0 19.7329 5.52234 25.4164 12.3483 25.4164C15.2295 25.4164 17.8706 24.3927 19.963 22.6981C17.1161 20.4036 15.2639 16.7677 15.2639 12.7082Z" fill="#FF0623"/>
<path d="M39.9605 12.7082C39.9605 19.7329 34.4382 25.4164 27.6122 25.4164C24.731 25.4164 22.0899 24.3927 19.9976 22.6981C22.8788 20.3684 24.6968 16.7677 24.6968 12.7082C24.6968 8.64868 22.8444 5.04796 19.9976 2.71807C22.0897 1.02368 24.731 0 27.6122 0C34.4382 0 39.9607 5.71867 39.9607 12.7082H39.9605Z" fill="#F8A934"/>
</g>
<defs>
<clipPath id="clip0_601_5294">
<rect width="40" height="32" fill="white"/>
</clipPath>
</defs>
</svg>
