<svg width="50" height="50" viewBox="0 0 50 50" fill="none" xmlns="http://www.w3.org/2000/svg">
<path fill-rule="evenodd" clip-rule="evenodd" d="M45.9473 15.469C45.9473 14.8928 45.476 14.4217 44.8999 14.4217H37.5684V22.8006H45.9473V15.469ZM35.4737 14.4217H27.0948V22.8006H35.4737V14.4217ZM25 14.4217H16.6211V22.8006H25V14.4217ZM14.5264 14.4217H7.56141C6.56644 14.4217 5.67614 15.1547 5.51907 16.1495L4.31458 23.5861C4.20985 24.3716 4.10509 25.1571 4.10509 25.9427H11.3843L14.5264 22.8006V14.4217ZM48.042 14.4217V33.2742C48.042 34.4262 47.0994 35.3689 45.9473 35.3689H45.8426C45.8949 35.0546 45.9473 34.6881 45.9473 34.3216C45.9473 31.4413 43.5907 29.0847 40.7105 29.0847C37.8302 29.0847 35.4737 31.4413 35.4737 34.3216C35.4737 34.6881 35.526 35.0546 35.5784 35.3689H16.5164C16.5687 35.0546 16.6211 34.6881 16.6211 34.3216C16.6211 31.4413 14.2645 29.0847 11.3843 29.0847C8.50404 29.0847 6.14749 31.4413 6.14749 34.3216C6.14749 34.6881 6.19983 35.0546 6.25222 35.3689H4.05276C2.90067 35.3689 1.95803 34.4262 1.95803 33.2742V26.571C1.95803 25.4711 2.06279 24.3191 2.21983 23.2192L3.42435 15.7309C3.7909 13.7408 5.51907 12.2744 7.56141 12.2744H45.9473C47.0994 12.3269 48.042 13.2693 48.042 14.4217Z" fill="white" fill-opacity="0.76"/>
<path fill-rule="evenodd" clip-rule="evenodd" d="M7.71878 34.322C7.71878 36.3465 9.35997 37.9878 11.3846 37.9878C13.4091 37.9878 15.0503 36.3465 15.0503 34.322C15.0503 32.2975 13.4091 30.6562 11.3846 30.6562C9.35997 30.6562 7.71878 32.2975 7.71878 34.322Z" fill="white" fill-opacity="0.76"/>
<path fill-rule="evenodd" clip-rule="evenodd" d="M37.045 34.322C37.045 36.3465 38.6861 37.9878 40.7107 37.9878C42.7353 37.9878 44.3765 36.3465 44.3765 34.322C44.3765 32.2975 42.7353 30.6562 40.7107 30.6562C38.6861 30.6562 37.045 32.2975 37.045 34.322Z" fill="white" fill-opacity="0.76"/>
</svg>
